<svg xmlns="http://www.w3.org/2000/svg" viewBox="0 0 24 24" fill="none" stroke="currentColor" stroke-width="2" stroke-linecap="round" stroke-linejoin="round" class="lucide lucide-paw-print">
  <defs>
    <linearGradient id="grad1" x1="0%" y1="0%" x2="100%" y2="100%">
      <stop offset="0%" style="stop-color:#4f46e5;stop-opacity:1" />
      <stop offset="100%" style="stop-color:#ec4899;stop-opacity:1" />
    </linearGradient>
  </defs>
  <circle cx="12" cy="12" r="10" fill="url(#grad1)" stroke="none" opacity="0.1" />
  <path d="M12 2a3 3 0 0 0-3 3v7a3 3 0 0 0 6 0V5a3 3 0 0 0-3-3Z" fill="url(#grad1)" stroke="none" />
  <path d="M19 8a3 3 0 0 0-3 3v1a3 3 0 0 0 6 0v-1a3 3 0 0 0-3-3Z" fill="url(#grad1)" stroke="none" />
  <path d="M5 8a3 3 0 0 0-3 3v1a3 3 0 0 0 6 0v-1a3 3 0 0 0-3-3Z" fill="url(#grad1)" stroke="none" />
  <path d="M9 18a3 3 0 0 0-3 3v1h6v-1a3 3 0 0 0-3-3Z" fill="url(#grad1)" stroke="none" />
  <path d="M15 18a3 3 0 0 0-3 3v1h6v-1a3 3 0 0 0-3-3Z" fill="url(#grad1)" stroke="none" />
  <!-- Tech circuit dots -->
  <circle cx="12" cy="12" r="1.5" fill="white" />
  <circle cx="12" cy="7" r="1" fill="white" opacity="0.8" />
  <circle cx="7" cy="11" r="1" fill="white" opacity="0.8" />
  <circle cx="17" cy="11" r="1" fill="white" opacity="0.8" />
</svg>
